<?xml version="1.0" encoding="UTF-8"?>
<svg id="Livello_5" data-name="Livello 5" xmlns="http://www.w3.org/2000/svg" viewBox="0 0 322 280">
  <defs>
    <style>
      .cls-1 {
        fill: #1d1d1b;
      }
    </style>
  </defs>
  <path class="cls-1" d="M118.66,5.86c-8.84-1.05-15.84-.19-19.47.42-6.71,1.13-11.56,3.01-14.68,4.46-3.52,1.64-5.07,2.83-5.63,3.28-.84.67-4.91,4.04-7.07,9.9-3.26,8.86.26,16.91,1.16,18.97,2.65,6.06,6.75,9.46,9.86,12.05,1.93,1.61,7.59,6.01,16.28,8.37,1.75.47,7.77,1.99,15.66,1.34,3.15-.26,11.7-1.28,19.99-6.35,3.08-1.88,5.35-3.85,6.14-4.55,1.78-1.58,3.97-3.55,6.03-6.66.75-1.13,2.69-4.11,3.74-8.21.61-2.39,2.48-11.27-2.92-19.36-.07-.11-.17-.25-.28-.41-.72-1.01-3.37-4.59-9.26-7.66-7.91-4.12-17.95-5.39-19.54-5.58Z"/>
  <path class="cls-1" d="M234.11,230.47c-1.56,1.97-3.04,3.8-4.44,5.47-6.37,5.01-9.55,7.52-13.57,9.7-4.57,2.47-23.13,11.71-43.16,5.23-6.53-2.11-11.14-5.22-14.19-7.32-9.59-6.58-14.91-14.09-17.6-17.98-11.97-17.25-15.37-37.1-17.17-48.16-5-30.86.06-54.97,1.83-62.53,1.59-6.78,4.76-18.19,11.07-31.49h-57.7c-2.29,6.76-4.43,14.4-6.08,22.78-2.28,11.59-7.3,43.34,2.47,78.34,3.63,12.99,8.39,23.17,10.09,26.69,3.86,7.99,8.73,17.9,17.8,28.47,3.31,3.86,12.04,13.87,25.69,21.8,7.98,4.64,37.98,20.39,72.57,9.23.48-.15,1.07-.35,1.77-.6,4.35-1.55,19.93-7.42,36.97-25.47,4.2-4.45,8.13-9.26,11.75-14.18h-18.11Z"/>
</svg>