<?xml version="1.0" encoding="UTF-8"?>
<svg id="Livello_1" xmlns="http://www.w3.org/2000/svg" version="1.1" viewBox="0 0 322 280">
  <!-- Generator: Adobe Illustrator 29.0.0, SVG Export Plug-In . SVG Version: 2.1.0 Build 186)  -->
  <defs>
    <style>
      .st0 {
        fill: #1d1d1b;
      }

      .st1 {
        fill: #fff;
      }

      .st2 {
        fill: none;
      }

      .st2, .st3 {
        stroke: #000;
        stroke-miterlimit: 10;
        stroke-width: 8px;
      }

      .st3 {
        fill: #ef7a62;
      }

      .st4 {
        display: none;
      }
    </style>
  </defs>
  <g class="st4">
    <path class="st1" d="M274.03-86.71H77.73c-2.71,0-.5-6.75-.45-8.45.89-30.3-7.43-62.55-44.51-61.54-17.21.47-40.45,18.5-40.45,36.53v33.47h-22.48c-43.7,0-71.5,41.67-73.47,81.37-5.31,106.99,4.11,218.32,0,325.76.24,40.49,29.38,73.95,69.49,79.36l387.14-.43,99.36-99.43,1.46-7.53c-.77-104.1,1.66-208.42-1.26-312.39-3.3-33.2-38.68-66.71-72.15-66.71h-22.48v-34.46c0-1.32-3.54-10.7-4.46-12.53-14.71-29.35-58.19-30.44-74.27-1.26-1.35,2.46-5.19,10.53-5.19,12.79v35.46Z"/>
    <path d="M273.47-86.09v-35.46c0-2.26,3.84-10.33,5.19-12.79,16.08-29.17,59.56-28.09,74.27,1.26.91,1.82,4.46,11.2,4.46,12.53v34.46h22.48c33.47,0,68.85,33.51,72.15,66.71,2.92,103.97.48,208.29,1.26,312.39l-1.46,7.53-99.36,99.43-387.14.43c-40.11-5.41-69.25-38.87-69.49-79.36,4.1-107.44-5.32-218.77,0-325.76,1.97-39.7,29.77-81.37,73.47-81.37H-8.24v-33.47c0-18.03,23.24-36.06,40.45-36.53,37.08-1,45.4,31.24,44.51,61.54-.05,1.7-2.25,8.45.45,8.45h196.3ZM29.46-132.8c-8.51,1.47-14,9.23-15.64,17.33,1.72,25.53-2.61,54.73-.08,79.82s34.53,26.93,39.86,2.92c-2-26.22,2.98-57.18.09-82.83-1.4-12.47-12.15-19.33-24.24-17.24ZM310.16-132.81c-6.92,1.41-13.67,9.36-14.62,16.35,2,26.22-2.98,57.18-.09,82.83,2.55,22.65,36.13,24.4,39.7-.26s-2.1-55.56.27-80.66c-1.79-13.04-12.06-20.94-25.25-18.25ZM-8.24-63.11h-26.47c-18.93,0-46.45,28.59-46.45,47.45V31.79h511.48V-15.66c0-18.85-27.6-47.45-46.45-47.45h-26.47V-28.65c0,1.32-3.54,10.7-4.46,12.53-14.37,28.69-57.1,30.5-73.66,2.65-1.44-2.42-5.8-11.96-5.8-14.18v-35.46H76.67v27.47C76.67,1.07,30.61,20.68,4.26-5.18-.02-9.38-8.24-23.86-8.24-29.64v-33.47ZM430.31,54.77H-81.17v275.22c0,21.16,28.41,48.45,49.45,48.45h367.62l1.5-1.5v-54.94c0-16.81,25.05-37.46,41.46-37.46h51.45V54.77ZM413.33,307.51h-36.46c-5.75,0-17.48,12.77-17.48,18.48v35.46l53.94-53.94Z"/>
    <path class="st1" d="M218.17,99.08c-3.91-3.58-11.99-7.61-17.24-8.23-11.98-1.43-38.61-1.2-50.87-.15-11.9,1.03-23.76,10.01-27.65,21.3-3.08,8.97-2.75,45.4-1.82,56.19.97,11.36,8.81,23.05,19.32,27.63,9.57,4.17,45.49,3.77,57.17,2.84,15.5-1.23,29.47-12.71,31.32-28.61,1.36-11.67,1.24-38.02.15-49.88-.65-7.1-5.19-16.33-10.38-21.08ZM294.19,90.97c-17.17,2.66-25.66,19.36-26.75,35.18-1.79,25.81-4.37,68.99,30.52,72.46,11.55,1.15,47.62,1.27,57.42-2.5,8.96-3.45,15.97-10.85,19.03-19.93,3.25-9.64,2.96-43.73,1.94-54.97-1.25-13.7-12.65-28.19-26.72-30.23-10.22-1.48-45.35-1.58-55.44-.02ZM4.54,236.88c-13.09,1.42-26.02,9.86-30.06,22.88-2.96,9.53-2.9,52.93,0,62.54,3.86,12.8,16.93,21.79,29.9,23.05,11.76,1.14,47.08,1.5,57-2.67,8.17-3.44,16.13-12.86,18.6-21.35,3.15-10.79,2.82-51.2-.59-61.98-2.68-8.46-10.1-16.34-18.34-19.63-11.24-4.49-43.81-4.21-56.52-2.83Z"/>
    <path class="st1" d="M-8.24-63.11V-29.64C-8.24-23.86-.02-9.38,4.26-5.18,30.61,20.68,76.67,1.07,76.67-35.64v-27.47h196.8V-27.65c0,2.22,4.36,11.76,5.8,14.18,16.55,27.85,59.28,26.03,73.66-2.65.91-1.82,4.46-11.2,4.46-12.53v-34.46h26.47c18.85,0,46.45,28.61,46.45,47.45V31.79H-81.17V-15.66c0-18.86,27.52-47.45,46.45-47.45H-8.24Z"/>
    <path class="st1" d="M29.46-132.8c12.09-2.09,22.84,4.76,24.24,17.24,2.89,25.65-2.09,56.61-.09,82.83-5.33,24.01-37.35,21.97-39.86-2.92s1.79-54.29.08-79.82c1.63-8.1,7.12-15.86,15.64-17.33Z"/>
    <path class="st1" d="M310.16-132.81c13.19-2.69,23.47,5.21,25.25,18.25-2.36,25.1,3.26,56.29-.27,80.66s-37.15,22.92-39.7.26c-2.89-25.65,2.09-56.61.09-82.83.95-6.99,7.7-14.93,14.62-16.35Z"/>
    <path class="st1" d="M413.33,307.51l-53.94,53.94v-35.46c0-5.71,11.74-18.48,17.48-18.48h36.46Z"/>
    <path class="st1" d="M3.48,259.79c6.11-1.23,40.2-1.2,46.66-.17,4.25.68,8.07,5.16,8.57,9.41,1.08,9.17,1.09,34.84,0,44-.48,4.07-4.35,8.97-8.46,9.52-8.81,1.18-37.04,1.03-46.03-.03-4.7-.56-7.93-3.69-8.49-8.49-1.02-8.69-1.19-37.57.09-45.91.62-4.04,3.6-7.51,7.66-8.32Z"/>
    <path class="st1" d="M3.46,112.92c5.77-1.3,38.02-1.04,44.77-.23,5.16.62,9.86,4.08,10.49,9.49.82,6.98,1.01,40.76-.5,46.5-.81,3.08-3.39,5.58-6.33,6.66-6.13,2.27-35.93,2.03-43.69,1.35-6-.53-11.69-2.83-12.47-9.51-1-8.5-1.2-37.82.08-45.92.51-3.22,4.48-7.62,7.65-8.34Z"/>
    <path class="st1" d="M350.08,115.02c.55.48,2.64,3.93,2.85,4.64,1.43,4.99,1.24,40.99.48,47.51-.92,7.82-7.93,9.03-14.46,9.51-7.72.57-35.74.97-41.69-1.35-2.94-1.15-5.51-3.52-6.33-6.66-1.52-5.8-1.28-38.44-.47-45.48s4.58-9.88,11.45-10.53c9.86-.93,32.31-1.07,42.02.01,1.87.21,4.79,1.12,6.16,2.34Z"/>
    <path class="st1" d="M151.32,112.94c6.65-1.35,37.38-1.14,44.75-.25,6.71.81,9.75,5.1,10.47,11.51,1.04,9.33.93,30.53.04,40-.72,7.63-4.81,11.59-12.52,12.45-9.06,1.02-27.69.76-37,.03-8.65-.67-13.61-3.16-14.49-12.49s-1.08-32.01.13-40.91c.67-4.93,3.53-9.31,8.63-10.35Z"/>
  </g>
  <path class="st0" d="M199.25,209.82c-.72,1.1-1.28,1.92-1.85,2.76,2.03,2.38,3.59,4.64,4.77,6.54.82,1.33,1.45,2.76,1.84,4.28.11.42.18.8.24,1.2.16,1.14.62,5.72-2.3,9.38-.95,1.19-1.96,1.9-2.63,2.37-2.12,1.48-4.1,1.99-5.11,2.25-4.52,1.13-8.91.29-11.35-.21-6.8-1.38-11.41-4.32-12.84-5.28-1.53-1.03-4.27-3.04-7.01-6.24-1.3-1.51-3.84-4.74-5.79-9.42-.72-1.73-1.45-3.52-1.81-6.04-.26-1.86-.6-4.48.42-7.55.42-1.26,1.22-3.62,3.48-5.58,1.92-1.66,3.92-2.2,5.07-2.49,2.25-.58,4.54-.68,5.74-.6,1.16.11,2.49.28,3.79.7.39-.85,1.06-2.37,1.3-2.92-1.56-.48-3.21-.87-4.4-1.06-3.56-.55-4.84-.19-5.5-.13-.89.08-5.44.41-9.77,3.25-6.55,4.3-8.17,11.4-8.59,13.22-1.22,5.35-.17,9.64.63,12.9.5,2.02,2.1,7.76,6.73,13.61.93,1.18,4.2,5.16,9.78,8.62,2.23,1.38,8.43,4.91,16.47,5.63,2.98.26,5.47.07,6.34,0,1.96-.18,4.4-.41,7.31-1.47,1.06-.39,3.83-1.41,6.54-3.63,1.59-1.29,7.21-6.29,7.61-14.35,0-.11.01-.25.01-.41.02-1.02.02-4.72-2.39-9.68-1.81-3.72-4.5-7.16-6.7-9.64h0Z"/>
  <path class="st0" d="M118.21,209.82c-.72,1.1-1.28,1.92-1.85,2.76,2.03,2.38,3.59,4.64,4.77,6.54.82,1.33,1.45,2.76,1.84,4.28.11.42.18.8.24,1.2.16,1.14.62,5.72-2.3,9.38-.95,1.19-1.96,1.9-2.63,2.37-2.12,1.48-4.1,1.99-5.11,2.25-4.52,1.13-8.91.29-11.35-.21-6.8-1.38-11.41-4.32-12.84-5.28-1.53-1.03-4.27-3.04-7.01-6.24-1.3-1.51-3.84-4.74-5.79-9.42-.72-1.73-1.45-3.52-1.81-6.04-.26-1.86-.6-4.48.42-7.55.42-1.26,1.22-3.62,3.48-5.58,1.92-1.66,3.92-2.2,5.07-2.49,2.25-.58,4.54-.68,5.74-.6,1.16.11,2.49.28,3.79.7.39-.85,1.06-2.37,1.3-2.92-1.56-.48-3.21-.87-4.4-1.06-3.56-.55-4.84-.19-5.5-.13-.89.08-5.44.41-9.77,3.25-6.55,4.3-8.17,11.4-8.59,13.22-1.22,5.35-.17,9.64.63,12.9.5,2.02,2.1,7.76,6.73,13.61.93,1.18,4.2,5.16,9.78,8.62,2.23,1.38,8.43,4.91,16.47,5.63,2.98.26,5.47.07,6.34,0,1.96-.18,4.4-.41,7.31-1.47,1.06-.39,3.83-1.41,6.54-3.63,1.59-1.29,7.21-6.29,7.61-14.35,0-.11.01-.25.01-.41.02-1.02.02-4.72-2.39-9.68-1.81-3.72-4.5-7.16-6.7-9.64h0Z"/>
  <path class="st0" d="M197.34,137.19c-.72,1.1-1.28,1.92-1.85,2.76,2.03,2.38,3.59,4.64,4.77,6.54.82,1.33,1.45,2.76,1.84,4.28.11.42.18.8.24,1.2.16,1.14.62,5.72-2.3,9.38-.95,1.19-1.96,1.9-2.63,2.37-2.12,1.48-4.1,1.99-5.11,2.25-4.52,1.13-8.91.29-11.35-.21-6.8-1.38-11.41-4.32-12.84-5.28-1.53-1.03-4.27-3.04-7.01-6.24-1.3-1.51-3.84-4.74-5.79-9.42-.72-1.73-1.45-3.52-1.81-6.04-.26-1.86-.6-4.48.42-7.55.42-1.26,1.22-3.62,3.48-5.58,1.92-1.66,3.92-2.2,5.07-2.49,2.25-.58,4.54-.68,5.74-.6,1.16.11,2.49.28,3.79.7.39-.85,1.06-2.37,1.3-2.92-1.56-.48-3.21-.87-4.4-1.06-3.56-.55-4.84-.19-5.5-.13-.89.08-5.44.41-9.77,3.25-6.55,4.3-8.17,11.4-8.59,13.22-1.22,5.35-.17,9.64.63,12.9.5,2.02,2.1,7.76,6.73,13.61.93,1.18,4.2,5.16,9.78,8.62,2.23,1.38,8.43,4.91,16.47,5.63,2.98.26,5.47.07,6.34,0,1.96-.18,4.4-.41,7.31-1.47,1.06-.39,3.83-1.41,6.54-3.63,1.59-1.29,7.21-6.29,7.61-14.35,0-.11.01-.25.01-.41.02-1.02.02-4.72-2.39-9.68-1.81-3.72-4.5-7.16-6.7-9.64h0Z"/>
  <path class="st0" d="M276.62,137.19c-.72,1.1-1.28,1.92-1.85,2.76,2.03,2.38,3.59,4.64,4.77,6.54.82,1.33,1.45,2.76,1.84,4.28.11.42.18.8.24,1.2.16,1.14.62,5.72-2.3,9.38-.95,1.19-1.96,1.9-2.63,2.37-2.12,1.48-4.1,1.99-5.11,2.25-4.52,1.13-8.91.29-11.35-.21-6.8-1.38-11.41-4.32-12.84-5.28-1.53-1.03-4.27-3.04-7.01-6.24-1.3-1.51-3.84-4.74-5.79-9.42-.72-1.73-1.45-3.52-1.81-6.04-.26-1.86-.6-4.48.42-7.55.42-1.26,1.22-3.62,3.48-5.58,1.92-1.66,3.92-2.2,5.07-2.49,2.25-.58,4.54-.68,5.74-.6,1.16.11,2.49.28,3.79.7.39-.85,1.06-2.37,1.3-2.92-1.56-.48-3.21-.87-4.4-1.06-3.56-.55-4.84-.19-5.5-.13-.89.08-5.44.41-9.77,3.25-6.55,4.3-8.17,11.4-8.59,13.22-1.22,5.35-.17,9.64.63,12.9.5,2.02,2.1,7.76,6.73,13.61.93,1.18,4.2,5.16,9.78,8.62,2.23,1.38,8.43,4.91,16.47,5.63,2.98.26,5.47.07,6.34,0,1.96-.18,4.4-.41,7.31-1.47,1.06-.39,3.83-1.41,6.54-3.63,1.59-1.29,7.21-6.29,7.61-14.35,0-.11.01-.25.01-.41.02-1.02.02-4.72-2.39-9.68-1.81-3.72-4.5-7.16-6.7-9.64h0Z"/>
  <path class="st0" d="M117.26,137.19c-.72,1.1-1.28,1.92-1.85,2.76,2.03,2.38,3.59,4.64,4.77,6.54.82,1.33,1.45,2.76,1.84,4.28.11.42.18.8.24,1.2.16,1.14.62,5.72-2.3,9.38-.95,1.19-1.96,1.9-2.63,2.37-2.12,1.48-4.1,1.99-5.11,2.25-4.52,1.13-8.91.29-11.35-.21-6.8-1.38-11.41-4.32-12.84-5.28-1.53-1.03-4.27-3.04-7.01-6.24-1.3-1.51-3.84-4.74-5.79-9.42-.72-1.73-1.45-3.52-1.81-6.04-.26-1.86-.6-4.48.42-7.55.42-1.26,1.22-3.62,3.48-5.58,1.92-1.66,3.92-2.2,5.07-2.49,2.25-.58,4.54-.68,5.74-.6,1.16.11,2.49.28,3.79.7.39-.85,1.06-2.37,1.3-2.92-1.56-.48-3.21-.87-4.4-1.06-3.56-.55-4.84-.19-5.5-.13-.89.08-5.44.41-9.77,3.25-6.55,4.3-8.17,11.4-8.59,13.22-1.22,5.35-.17,9.64.63,12.9.5,2.02,2.1,7.76,6.73,13.61.93,1.18,4.2,5.16,9.78,8.62,2.23,1.38,8.43,4.91,16.47,5.63,2.98.26,5.47.07,6.34,0,1.96-.18,4.4-.41,7.31-1.47,1.06-.39,3.83-1.41,6.54-3.63,1.59-1.29,7.21-6.29,7.61-14.35,0-.11.01-.25.01-.41.02-1.02.02-4.72-2.39-9.68-1.81-3.72-4.5-7.16-6.7-9.64h0Z"/>
  <path class="st2" d="M43.67,235.79V80.52c0-7.58,2.08-15.05,6.24-21.39,4.68-7.14,12.49-14.17,25-13.77,22.35.73,160.9.14,190.06,0,6.35-.03,12.65,1.44,18.22,4.49,7.15,3.91,14.67,10.98,14.92,23.47.49,23.98.22,147.03.22,147.03l-43.61,45.68H77.11c-7.64,0-15.16-2.29-21.33-6.8-4.66-3.41-9.08-8.42-11.1-15.68-.7-2.53-1-5.15-1-7.77Z"/>
  <path class="st2" d="M254.72,262.15v-26.97s1.98-12.95,13.19-13.68c9.13-.59,23.56-.97,28.61-1.08.67-.02,1.02.79.56,1.27l-39.66,41.54c-.98,1.02-2.7.33-2.7-1.08Z"/>
  <line class="st2" x1="43.67" y1="101.46" x2="298.34" y2="101.46"/>
  <path class="st3" d="M102.58,79.06c4.92,0,8.57-2.98,10.42-5.81,1.6-2.44,2.4-5.32,2.44-8.23.1-7.95.37-32.04-.04-42.93-.39-10.4-9.11-11.2-12.74-11.08-3.63-.12-12.35.68-12.74,11.08-.4,10.89-.14,34.98-.04,42.93.04,2.92.84,5.79,2.44,8.23,1.86,2.83,5.35,5.87,10.33,5.81"/>
  <path class="st3" d="M238.44,79.5c4.92,0,8.57-2.98,10.42-5.81,1.6-2.44,2.4-5.32,2.44-8.23.1-7.95.37-32.04-.04-42.93-.39-10.4-9.11-11.2-12.74-11.08-3.63-.12-12.35.68-12.74,11.08-.4,10.89-.14,34.98-.04,42.93.04,2.92.84,5.79,2.44,8.23,1.86,2.83,5.35,5.87,10.33,5.81"/>
</svg>