<?xml version="1.0" encoding="UTF-8"?>
<svg id="Livello_1" xmlns="http://www.w3.org/2000/svg" version="1.1" viewBox="0 0 322 280">
  <!-- Generator: Adobe Illustrator 29.0.0, SVG Export Plug-In . SVG Version: 2.1.0 Build 186)  -->
  <defs>
    <style>
      .st0 {
        fill: #ef7a62;
      }

      .st0, .st1 {
        stroke: #1d1d1b;
        stroke-miterlimit: 10;
        stroke-width: 8px;
      }

      .st2 {
        fill: #fff;
      }

      .st3 {
        display: none;
      }

      .st4 {
        fill: #1d1d1b;
      }

      .st1 {
        fill: none;
      }
    </style>
  </defs>
  <g class="st3">
    <path class="st2" d="M274-86.7H77.7c-2.7,0-.5-6.8-.4-8.4.9-30.3-7.4-62.5-44.5-61.5-17.2.5-40.5,18.5-40.5,36.5v33.5h-22.5c-43.7,0-71.5,41.7-73.5,81.4-5.3,107,4.1,218.3,0,325.8.2,40.5,29.4,73.9,69.5,79.4l387.1-.4,99.4-99.4,1.5-7.5c-.8-104.1,1.7-208.4-1.3-312.4-3.3-33.2-38.7-66.7-72.1-66.7h-22.5v-34.5c0-1.3-3.5-10.7-4.5-12.5-14.7-29.4-58.2-30.4-74.3-1.3-1.4,2.5-5.2,10.5-5.2,12.8v35.5h0Z"/>
    <path d="M273.5-86.1v-35.5c0-2.3,3.8-10.3,5.2-12.8,16.1-29.2,59.6-28.1,74.3,1.3.9,1.8,4.5,11.2,4.5,12.5v34.5h22.5c33.5,0,68.9,33.5,72.1,66.7,2.9,104,.5,208.3,1.3,312.4l-1.5,7.5-99.4,99.4-387.1.4c-40.1-5.4-69.2-38.9-69.5-79.4,4.1-107.4-5.3-218.8,0-325.8,2-39.7,29.8-81.4,73.5-81.4H-8.2v-33.5c0-18,23.2-36.1,40.4-36.5,37.1-1,45.4,31.2,44.5,61.5,0,1.7-2.2,8.4.4,8.4h196.3ZM29.5-132.8c-8.5,1.5-14,9.2-15.6,17.3,1.7,25.5-2.6,54.7,0,79.8s34.5,26.9,39.9,2.9c-2-26.2,3-57.2,0-82.8-1.4-12.5-12.1-19.3-24.2-17.2h0ZM310.2-132.8c-6.9,1.4-13.7,9.4-14.6,16.3,2,26.2-3,57.2,0,82.8,2.5,22.6,36.1,24.4,39.7-.3,3.6-24.7-2.1-55.6.3-80.7-1.8-13-12.1-20.9-25.2-18.2h0ZM-8.2-63.1h-26.5c-18.9,0-46.5,28.6-46.5,47.5V31.8h511.5V-15.7c0-18.9-27.6-47.5-46.5-47.5h-26.5V-28.6c0,1.3-3.5,10.7-4.5,12.5-14.4,28.7-57.1,30.5-73.7,2.6-1.4-2.4-5.8-12-5.8-14.2v-35.5H76.7v27.5C76.7,1.1,30.6,20.7,4.3-5.2,0-9.4-8.2-23.9-8.2-29.6v-33.5ZM430.3,54.8H-81.2v275.2c0,21.2,28.4,48.5,49.5,48.5h367.6l1.5-1.5v-54.9c0-16.8,25-37.5,41.5-37.5h51.5V54.8ZM413.3,307.5h-36.5c-5.8,0-17.5,12.8-17.5,18.5v35.5l53.9-53.9Z"/>
    <path class="st2" d="M218.2,99.1c-3.9-3.6-12-7.6-17.2-8.2-12-1.4-38.6-1.2-50.9-.2-11.9,1-23.8,10-27.7,21.3-3.1,9-2.8,45.4-1.8,56.2,1,11.4,8.8,23.1,19.3,27.6,9.6,4.2,45.5,3.8,57.2,2.8,15.5-1.2,29.5-12.7,31.3-28.6,1.4-11.7,1.2-38,.1-49.9-.6-7.1-5.2-16.3-10.4-21.1h0ZM294.2,91c-17.2,2.7-25.7,19.4-26.8,35.2-1.8,25.8-4.4,69,30.5,72.5,11.5,1.1,47.6,1.3,57.4-2.5,9-3.4,16-10.9,19-19.9,3.2-9.6,3-43.7,1.9-55-1.2-13.7-12.6-28.2-26.7-30.2-10.2-1.5-45.4-1.6-55.4,0h0ZM4.5,236.9c-13.1,1.4-26,9.9-30.1,22.9-3,9.5-2.9,52.9,0,62.5,3.9,12.8,16.9,21.8,29.9,23,11.8,1.1,47.1,1.5,57-2.7,8.2-3.4,16.1-12.9,18.6-21.4,3.2-10.8,2.8-51.2-.6-62-2.7-8.5-10.1-16.3-18.3-19.6-11.2-4.5-43.8-4.2-56.5-2.8h0Z"/>
    <path class="st2" d="M-8.2-63.1V-29.6C-8.2-23.9,0-9.4,4.3-5.2,30.6,20.7,76.7,1.1,76.7-35.6v-27.5h196.8V-27.6c0,2.2,4.4,11.8,5.8,14.2,16.5,27.9,59.3,26,73.7-2.6.9-1.8,4.5-11.2,4.5-12.5v-34.5h26.5c18.9,0,46.5,28.6,46.5,47.5V31.8H-81.2V-15.7c0-18.9,27.5-47.5,46.5-47.5H-8.2Z"/>
    <path class="st2" d="M29.5-132.8c12.1-2.1,22.8,4.8,24.2,17.2,2.9,25.7-2.1,56.6,0,82.8-5.3,24-37.3,22-39.9-2.9-2.5-24.9,1.8-54.3,0-79.8,1.6-8.1,7.1-15.9,15.6-17.3h0Z"/>
    <path class="st2" d="M310.2-132.8c13.2-2.7,23.5,5.2,25.2,18.2-2.4,25.1,3.3,56.3-.3,80.7s-37.1,22.9-39.7.3c-2.9-25.6,2.1-56.6,0-82.8,1-7,7.7-14.9,14.6-16.4h0Z"/>
    <path class="st2" d="M413.3,307.5l-53.9,53.9v-35.5c0-5.7,11.7-18.5,17.5-18.5h36.5Z"/>
    <path class="st2" d="M3.5,259.8c6.1-1.2,40.2-1.2,46.7-.2,4.2.7,8.1,5.2,8.6,9.4,1.1,9.2,1.1,34.8,0,44-.5,4.1-4.3,9-8.5,9.5-8.8,1.2-37,1-46,0-4.7-.6-7.9-3.7-8.5-8.5-1-8.7-1.2-37.6,0-45.9.6-4,3.6-7.5,7.7-8.3h0Z"/>
    <path class="st2" d="M3.5,112.9c5.8-1.3,38-1,44.8-.2,5.2.6,9.9,4.1,10.5,9.5.8,7,1,40.8-.5,46.5-.8,3.1-3.4,5.6-6.3,6.7-6.1,2.3-35.9,2-43.7,1.4-6-.5-11.7-2.8-12.5-9.5-1-8.5-1.2-37.8,0-45.9.5-3.2,4.5-7.6,7.7-8.3h0Z"/>
    <path class="st2" d="M350.1,115c.5.5,2.6,3.9,2.9,4.6,1.4,5,1.2,41,.5,47.5-.9,7.8-7.9,9-14.5,9.5-7.7.6-35.7,1-41.7-1.4-2.9-1.1-5.5-3.5-6.3-6.7-1.5-5.8-1.3-38.4-.5-45.5s4.6-9.9,11.5-10.5c9.9-.9,32.3-1.1,42,0,1.9.2,4.8,1.1,6.2,2.3h0Z"/>
    <path class="st2" d="M151.3,112.9c6.6-1.3,37.4-1.1,44.8-.2,6.7.8,9.8,5.1,10.5,11.5,1,9.3.9,30.5,0,40-.7,7.6-4.8,11.6-12.5,12.4-9.1,1-27.7.8-37,0-8.6-.7-13.6-3.2-14.5-12.5s-1.1-32,.1-40.9c.7-4.9,3.5-9.3,8.6-10.3h0Z"/>
  </g>
  <path class="st4" d="M199.2,209.8c-.7,1.1-1.3,1.9-1.9,2.8,2,2.4,3.6,4.6,4.8,6.5.8,1.3,1.4,2.8,1.8,4.3.1.4.2.8.2,1.2.2,1.1.6,5.7-2.3,9.4-.9,1.2-2,1.9-2.6,2.4-2.1,1.5-4.1,2-5.1,2.2-4.5,1.1-8.9.3-11.4-.2-6.8-1.4-11.4-4.3-12.8-5.3-1.5-1-4.3-3-7-6.2-1.3-1.5-3.8-4.7-5.8-9.4-.7-1.7-1.4-3.5-1.8-6-.3-1.9-.6-4.5.4-7.6.4-1.3,1.2-3.6,3.5-5.6,1.9-1.7,3.9-2.2,5.1-2.5,2.2-.6,4.5-.7,5.7-.6,1.2.1,2.5.3,3.8.7.4-.9,1.1-2.4,1.3-2.9-1.6-.5-3.2-.9-4.4-1.1-3.6-.6-4.8-.2-5.5-.1-.9,0-5.4.4-9.8,3.2-6.6,4.3-8.2,11.4-8.6,13.2-1.2,5.4-.2,9.6.6,12.9.5,2,2.1,7.8,6.7,13.6.9,1.2,4.2,5.2,9.8,8.6,2.2,1.4,8.4,4.9,16.5,5.6,3,.3,5.5,0,6.3,0,2-.2,4.4-.4,7.3-1.5,1.1-.4,3.8-1.4,6.5-3.6,1.6-1.3,7.2-6.3,7.6-14.4,0-.1,0-.2,0-.4,0-1,0-4.7-2.4-9.7-1.8-3.7-4.5-7.2-6.7-9.6h0Z"/>
  <path class="st4" d="M118.2,209.8c-.7,1.1-1.3,1.9-1.8,2.8,2,2.4,3.6,4.6,4.8,6.5.8,1.3,1.4,2.8,1.8,4.3.1.4.2.8.2,1.2.2,1.1.6,5.7-2.3,9.4-.9,1.2-2,1.9-2.6,2.4-2.1,1.5-4.1,2-5.1,2.2-4.5,1.1-8.9.3-11.3-.2-6.8-1.4-11.4-4.3-12.8-5.3-1.5-1-4.3-3-7-6.2-1.3-1.5-3.8-4.7-5.8-9.4-.7-1.7-1.4-3.5-1.8-6-.3-1.9-.6-4.5.4-7.6.4-1.3,1.2-3.6,3.5-5.6,1.9-1.7,3.9-2.2,5.1-2.5,2.2-.6,4.5-.7,5.7-.6,1.2.1,2.5.3,3.8.7.4-.9,1.1-2.4,1.3-2.9-1.6-.5-3.2-.9-4.4-1.1-3.6-.6-4.8-.2-5.5-.1-.9,0-5.4.4-9.8,3.2-6.6,4.3-8.2,11.4-8.6,13.2-1.2,5.4-.2,9.6.6,12.9.5,2,2.1,7.8,6.7,13.6.9,1.2,4.2,5.2,9.8,8.6,2.2,1.4,8.4,4.9,16.5,5.6,3,.3,5.5,0,6.3,0,2-.2,4.4-.4,7.3-1.5,1.1-.4,3.8-1.4,6.5-3.6,1.6-1.3,7.2-6.3,7.6-14.4,0-.1,0-.2,0-.4,0-1,0-4.7-2.4-9.7-1.8-3.7-4.5-7.2-6.7-9.6h0Z"/>
  <path class="st4" d="M197.3,137.2c-.7,1.1-1.3,1.9-1.9,2.8,2,2.4,3.6,4.6,4.8,6.5.8,1.3,1.4,2.8,1.8,4.3.1.4.2.8.2,1.2.2,1.1.6,5.7-2.3,9.4-.9,1.2-2,1.9-2.6,2.4-2.1,1.5-4.1,2-5.1,2.2-4.5,1.1-8.9.3-11.4-.2-6.8-1.4-11.4-4.3-12.8-5.3-1.5-1-4.3-3-7-6.2-1.3-1.5-3.8-4.7-5.8-9.4-.7-1.7-1.4-3.5-1.8-6-.3-1.9-.6-4.5.4-7.6.4-1.3,1.2-3.6,3.5-5.6,1.9-1.7,3.9-2.2,5.1-2.5,2.2-.6,4.5-.7,5.7-.6,1.2.1,2.5.3,3.8.7.4-.8,1.1-2.4,1.3-2.9-1.6-.5-3.2-.9-4.4-1.1-3.6-.6-4.8-.2-5.5-.1-.9,0-5.4.4-9.8,3.2-6.6,4.3-8.2,11.4-8.6,13.2-1.2,5.4-.2,9.6.6,12.9.5,2,2.1,7.8,6.7,13.6.9,1.2,4.2,5.2,9.8,8.6,2.2,1.4,8.4,4.9,16.5,5.6,3,.3,5.5,0,6.3,0,2-.2,4.4-.4,7.3-1.5,1.1-.4,3.8-1.4,6.5-3.6,1.6-1.3,7.2-6.3,7.6-14.4,0-.1,0-.2,0-.4,0-1,0-4.7-2.4-9.7-1.8-3.7-4.5-7.2-6.7-9.6h0Z"/>
  <path class="st4" d="M276.6,137.2c-.7,1.1-1.3,1.9-1.9,2.8,2,2.4,3.6,4.6,4.8,6.5.8,1.3,1.5,2.8,1.8,4.3.1.4.2.8.2,1.2.2,1.1.6,5.7-2.3,9.4-1,1.2-2,1.9-2.6,2.4-2.1,1.5-4.1,2-5.1,2.2-4.5,1.1-8.9.3-11.4-.2-6.8-1.4-11.4-4.3-12.8-5.3-1.5-1-4.3-3-7-6.2-1.3-1.5-3.8-4.7-5.8-9.4-.7-1.7-1.4-3.5-1.8-6-.3-1.9-.6-4.5.4-7.6.4-1.3,1.2-3.6,3.5-5.6,1.9-1.7,3.9-2.2,5.1-2.5,2.2-.6,4.5-.7,5.7-.6,1.2.1,2.5.3,3.8.7.4-.8,1.1-2.4,1.3-2.9-1.6-.5-3.2-.9-4.4-1.1-3.6-.6-4.8-.2-5.5-.1-.9,0-5.4.4-9.8,3.2-6.6,4.3-8.2,11.4-8.6,13.2-1.2,5.4-.2,9.6.6,12.9.5,2,2.1,7.8,6.7,13.6.9,1.2,4.2,5.2,9.8,8.6,2.2,1.4,8.4,4.9,16.5,5.6,3,.3,5.5,0,6.3,0,2-.2,4.4-.4,7.3-1.5,1.1-.4,3.8-1.4,6.5-3.6,1.6-1.3,7.2-6.3,7.6-14.4,0-.1,0-.2,0-.4,0-1,0-4.7-2.4-9.7-1.8-3.7-4.5-7.2-6.7-9.6h0Z"/>
  <path class="st4" d="M117.3,137.2c-.7,1.1-1.3,1.9-1.8,2.8,2,2.4,3.6,4.6,4.8,6.5.8,1.3,1.4,2.8,1.8,4.3.1.4.2.8.2,1.2.2,1.1.6,5.7-2.3,9.4-.9,1.2-2,1.9-2.6,2.4-2.1,1.5-4.1,2-5.1,2.2-4.5,1.1-8.9.3-11.3-.2-6.8-1.4-11.4-4.3-12.8-5.3-1.5-1-4.3-3-7-6.2-1.3-1.5-3.8-4.7-5.8-9.4-.7-1.7-1.4-3.5-1.8-6-.3-1.9-.6-4.5.4-7.6.4-1.3,1.2-3.6,3.5-5.6,1.9-1.7,3.9-2.2,5.1-2.5,2.2-.6,4.5-.7,5.7-.6,1.2.1,2.5.3,3.8.7.4-.8,1.1-2.4,1.3-2.9-1.6-.5-3.2-.9-4.4-1.1-3.6-.6-4.8-.2-5.5-.1-.9,0-5.4.4-9.8,3.2-6.6,4.3-8.2,11.4-8.6,13.2-1.2,5.4-.2,9.6.6,12.9.5,2,2.1,7.8,6.7,13.6.9,1.2,4.2,5.2,9.8,8.6,2.2,1.4,8.4,4.9,16.5,5.6,3,.3,5.5,0,6.3,0,2-.2,4.4-.4,7.3-1.5,1.1-.4,3.8-1.4,6.5-3.6,1.6-1.3,7.2-6.3,7.6-14.4,0-.1,0-.2,0-.4,0-1,0-4.7-2.4-9.7-1.8-3.7-4.5-7.2-6.7-9.6h0Z"/>
  <path class="st1" d="M43.7,235.8V80.5c0-7.6,2.1-15.1,6.2-21.4,4.7-7.1,12.5-14.2,25-13.8,22.3.7,160.9.1,190.1,0,6.4,0,12.6,1.4,18.2,4.5,7.1,3.9,14.7,11,14.9,23.5.5,24,.2,147,.2,147l-43.6,45.7H77.1c-7.6,0-15.2-2.3-21.3-6.8-4.7-3.4-9.1-8.4-11.1-15.7-.7-2.5-1-5.1-1-7.8h0Z"/>
  <path class="st1" d="M254.7,262.1v-27s2-12.9,13.2-13.7c9.1-.6,23.6-1,28.6-1.1.7,0,1,.8.6,1.3l-39.7,41.5c-1,1-2.7.3-2.7-1.1h0Z"/>
  <line class="st1" x1="43.7" y1="101.5" x2="298.3" y2="101.5"/>
  <path class="st0" d="M102.6,79.1c4.9,0,8.6-3,10.4-5.8,1.6-2.4,2.4-5.3,2.4-8.2,0-8,.4-32,0-42.9-.4-10.4-9.1-11.2-12.7-11.1-3.6-.1-12.3.7-12.7,11.1-.4,10.9-.1,35,0,42.9,0,2.9.8,5.8,2.4,8.2,1.9,2.8,5.3,5.9,10.3,5.8"/>
  <path class="st0" d="M238.4,79.5c4.9,0,8.6-3,10.4-5.8,1.6-2.4,2.4-5.3,2.4-8.2.1-8,.4-32,0-42.9-.4-10.4-9.1-11.2-12.7-11.1-3.6-.1-12.4.7-12.7,11.1-.4,10.9-.1,35,0,42.9,0,2.9.8,5.8,2.4,8.2,1.9,2.8,5.4,5.9,10.3,5.8"/>
</svg>