<?xml version="1.0" encoding="UTF-8"?>
<svg id="Livello_1" xmlns="http://www.w3.org/2000/svg" version="1.1" viewBox="0 0 207 204.51">
  <!-- Generator: Adobe Illustrator 29.0.0, SVG Export Plug-In . SVG Version: 2.1.0 Build 186)  -->
  <defs>
    <style>
      .st0 {
        fill: #1d1d1b;
      }

      .st1 {
        fill: none;
        stroke: #1d1d1b;
        stroke-miterlimit: 10;
      }
    </style>
  </defs>
  <path class="st1" d="M1170.1,332.35l23.34-21.35-2.27-2.37s-5.52,1.5-8.99-1.97c-2.32-2.31-14.56-17.07-14.56-17.07,0,0-.18-2.59,2.5-1.7l9.56,11.17s2.77-.09,1.97-2.32l-8.94-11.08s-.37-2.47,2.23-1.52l9.65,10.9s2.32-.18,1.61-2.41l-9.38-11.08s-.62-1.86,1.19-1.86c.79,0,1.53.4,2.05,1l11.96,13.85c1.46,1.7,2.55,3.7,3.03,5.89.34,1.53.41,3.23-.27,4.62l1.97,3.13,3.04-2.77s.37-11.62,2.79-15.06c.61-.87,1.25-1.71,1.85-2.6,2.03-3.03,7.2-8.87,17.42-10.16,2.78-.35,5.36,1.58,5.72,4.36.21,1.63.09,3.79-.71,6.66,0,0-.31,1.13-1.06,2.87-3.85,8.94-12.15,15.19-21.78,16.61h-.04s-3.75,3.04-3.75,3.04l21.21,21.22"/>
  <polyline class="st1" points="1215.94 337.63 1196.66 314.45 1177.9 337.63"/>
  <path class="st0" d="M129.14,50.47c.79,3.91,1.35,6.86,1.89,9.89,9.44.81,17.62,2.34,24.2,3.92,4.6,1.1,9.02,2.86,13.07,5.3,1.12.68,2.09,1.33,3.07,2.08,2.77,2.13,13.52,11,15.03,25.08.49,4.59-.16,8.27-.61,10.72-1.42,7.69-4.57,13.01-6.22,15.73-7.31,12.07-18.58,19.6-24.88,23.73-17.58,11.52-33.78,15.01-38.9,15.99-5.5,1.05-15.67,2.54-28.4,1.51-6.01-.49-18.36-2.01-32.55-7.94-5.24-2.19-10.61-4.48-16.77-9.16-4.53-3.45-10.85-8.37-15.2-17.15-1.78-3.6-5.09-10.39-4.39-19.41.59-7.65,3.77-13.09,5.61-16.17,3.61-6.04,7.96-9.91,10.8-12.08,2.84-1.69,6.13-3.53,9.82-5.4-.98-2.67-2.75-7.36-3.42-9.05-4.38,2.29-8.03,4.5-10.98,6.42-8.17,5.33-11.59,8.85-12.83,10.18-1.84,1.97-10.77,11.81-14.04,27.15-4.93,23.2,6.7,41.95,9.67,46.75,8.76,14.12,20.17,21.12,28.84,26.43,5.38,3.3,21.04,12.23,43.48,14.96,4.51.55,20.02,2.16,39.42-2.29,7.75-1.78,28.62-7.38,47.44-22.97,6.99-5.79,11.93-11.49,13.63-13.51,3.85-4.56,8.6-10.26,12.61-18.73,1.46-3.09,5.22-11.19,6.36-21.74.66-6.17,2.12-28.91-14.2-47.1-.22-.25-.51-.56-.85-.92-2.14-2.25-10.02-10.21-25.77-15.73-11.82-4.14-24.95-5.82-34.95-6.49h0Z"/>
  <path class="st0" d="M119.91,83.59c-.17-.51-.35-1.01-.54-1.51-4.17-10.96-14.21-18.63-25.81-20.32-1.88-.27-3.53-.47-4.76-.61-1.46-.16-2.73-1.03-3.44-2.31C70.91,32.88,50.62,8.35,47.73,4.9c-.21-.25-.55-.31-.84-.16-5.27,2.77-8.97,8.04-10.08,9.76-.19.3-.11.7.2.88,3.93,2.43,28.19,18.17,38.99,43.39,1.12,2.61,1.28,5.54.58,8.3-.78,3.03-1.13,4.41-1.3,7.03-.59,8.65,1.19,17.3,4.99,25.09.33.67.68,1.36,1.05,2.07,1.33,2.55,1.97,4.28,3.25,6.65l7.7,16.04c.96,1.92,2.77,2.27,4.16,1.63,2.19-1.01,1.59-2.94,1.07-4.55l-8.06-21.39c-.39-1.08-.75-2.25-.39-3.34.33-1,1.38-2.12,2.81-1.85.95.18,1.7.9,2.09,1.79l10.14,21.92c.56,1.31,2.06,3.24,4.42,2.11,2.01-.97,1.64-2.95,1.18-4.38l-8.32-22.26s-.63-2.4,1.09-3.07c1.21-.47,2.69-.01,3.58,2.05.52,1.21,6.29,15.18,8.5,20.8.53,1.35,1.79,2.34,3.24,2.36,1.94.03,3.36-1.45,2.76-3.93l-8.54-21.64c-.32-1.06-1.15-2.79.32-3.37,1.2-.48,1.79-.01,3.08,2.23l9.94,19.94c.67,1.67,2.23,2.14,3.44,1.63,1.33-.55,1.58-1.8,1.16-3.08l-10.01-23.96Z"/>
</svg>