<?xml version="1.0" encoding="UTF-8"?>
<svg id="Livello_9" data-name="Livello 9" xmlns="http://www.w3.org/2000/svg" viewBox="0 0 322 294">
  <defs>
    <style>
      .cls-1, .cls-2 {
        fill: #1d1d1b;
      }

      .cls-3 {
        fill: none;
        stroke-miterlimit: 10;
      }

      .cls-3, .cls-2 {
        stroke: #1d1d1b;
        stroke-width: 6px;
      }

      .cls-2 {
        stroke-linejoin: round;
      }
    </style>
  </defs>
  <g>
    <path class="cls-1" d="M151.73,166.66c9.92-1.39,17.81-.58,21.91.02,7.58,1.11,13.08,3.11,16.62,4.67,4,1.76,5.77,3.06,6.41,3.56.96.74,5.62,4.43,8.19,10.97,3.88,9.89.11,19.03-.86,21.36-2.84,6.88-7.37,10.8-10.81,13.79-2.14,1.85-8.4,6.94-18.12,9.79-1.95.57-8.69,2.42-17.59,1.87-3.55-.22-13.19-1.17-22.64-6.68-3.51-2.05-6.11-4.21-7.01-4.97-2.04-1.73-4.55-3.91-6.94-7.35-.87-1.26-3.13-4.56-4.4-9.14-.74-2.68-3.05-12.62,2.83-21.85.08-.13.18-.28.31-.47.78-1.15,3.68-5.24,10.24-8.83,8.81-4.82,20.07-6.48,21.85-6.73ZM131.59,177.19c-1.95,1.47-2.92,2.21-3.86,3.22-1.07,1.14-5.17,5.85-4.81,12.18.12,2.06.67,3.64,1.05,4.69,1.19,3.3,2.97,5.42,3.9,6.5,4.11,4.8,9.64,7.3,12.73,8.67,8.61,3.8,16.02,4.16,18.36,4.22,2.51.06,7.11-.02,12.66-1.41,2.62-.65,7.97-2.23,13.8-5.89,2.16-1.35,4.36-2.75,6.74-5.27,1.75-1.86,4.18-4.49,5.46-8.69.52-1.72,1.49-4.96.52-8.9-.82-3.34-2.62-5.51-3.66-6.74-2.04-2.4-4.24-3.8-5.66-4.55-5.62-2.2-14.6-4.92-25.86-4.99-14.37-.1-25.43,4.15-31.38,6.96Z"/>
    <rect class="cls-3" x="23.92" y="111.82" width="274.15" height="175.04"/>
    <polygon class="cls-3" points="34.99 111.82 34.99 67.14 198.56 67.14 198.56 44.49 280.22 44.49 280.22 111.82 34.99 111.82"/>
    <polyline class="cls-3" points="48.12 67.14 48.12 46.21 194.17 46.21 194.17 25.99 267.09 25.99 267.09 44.49"/>
    <polyline class="cls-3" points="63.97 44.49 63.97 24.43 188.88 24.43 188.88 7.14 251.25 7.14 251.25 25.99"/>
    <path class="cls-3" d="M23.58,110.41c3.8-8.43,7.61-16.85,11.41-25.28"/>
    <path class="cls-2" d="M298.08,109.7c-5.95-8.19-11.91-16.37-17.86-24.56v26.68c5.95-.71,11.91-1.41,17.86-2.12Z"/>
  </g>
  <path class="cls-1" d="M34.61,99.48c.41.37.7.87.9,1.22.8,1.39,1.14,3.08.94,4.28-.5,2.95-4.76,6.03-8.3,4.24-2.63-1.33-3.87-4.83-2.88-7.41,1.48-3.85,7.35-4.15,9.35-2.33Z"/>
</svg>