<?xml version="1.0" encoding="UTF-8"?>
<svg id="Livello_5" data-name="Livello 5" xmlns="http://www.w3.org/2000/svg" viewBox="0 0 322 500">
  <defs>
    <style>
      .cls-1 {
        fill: #1d1d1b;
      }
    </style>
  </defs>
  <g>
    <path class="cls-1" d="M93.93,161.29v-42.48c-14.17-7.21-28.34-14.42-42.51-21.63-3.72-1.89-8.13.8-8.15,4.97-.12,25.63-.24,51.25-.36,76.88-.02,4.24,4.49,6.97,8.24,4.98,14.26-7.57,28.52-15.14,42.78-22.72Z"/>
    <path class="cls-1" d="M256.61,134.41v-16.83c5.61-2.86,11.23-5.71,16.84-8.57,1.47-.75,3.22.32,3.23,1.97.05,10.15.1,20.3.14,30.45,0,1.68-1.78,2.76-3.26,1.97-5.65-3-11.3-6-16.95-9Z"/>
    <path class="cls-1" d="M232.08,94.9c-37.74-.77-75.49-1.55-113.23-2.32-11.57-.24-21,9.23-20.73,20.8.43,17.86.85,35.71,1.28,53.57.26,10.96,9.17,19.73,20.13,19.83,37.15.33,74.29.67,111.44,1,11.21.1,20.39-8.9,20.5-20.12.17-17.42.34-34.83.51-52.25.11-11.14-8.77-20.28-19.9-20.51Z"/>
    <path class="cls-1" d="M135.26,87.58c-12.66,2.46-22.87,1.94-28.18,1.44-9.82-.92-17.02-3.13-21.69-4.89-5.26-1.99-7.62-3.55-8.49-4.15-1.28-.88-7.53-5.32-11.26-13.56-5.65-12.46-1.41-24.46-.33-27.53,3.19-9.04,8.75-14.39,12.98-18.45,2.62-2.52,10.34-9.49,22.64-13.8,2.47-.87,11.01-3.69,22.49-3.59,4.58.04,17.04.62,29.56,7.07,4.65,2.4,8.14,5,9.35,5.92,2.73,2.09,6.12,4.72,9.42,8.99,1.21,1.56,4.33,5.66,6.27,11.46,1.14,3.4,4.77,16.02-2.18,28.29-.1.17-.22.38-.37.62-.93,1.53-4.38,6.99-12.57,12.05-11,6.79-25.37,9.67-27.65,10.12ZM160.45,72.68c2.4-2.03,3.6-3.04,4.75-4.4,1.3-1.54,6.26-7.87,5.37-15.98-.29-2.65-1.11-4.64-1.67-5.96-1.75-4.16-4.18-6.77-5.45-8.09-5.61-5.9-12.89-8.74-16.95-10.29-11.33-4.32-20.89-4.28-23.89-4.2-3.23.09-9.14.51-16.18,2.66-3.32,1.02-10.1,3.4-17.35,8.49-2.68,1.88-5.42,3.83-8.31,7.23-2.13,2.5-5.08,6.06-6.44,11.54-.56,2.25-1.58,6.48-.07,11.48,1.28,4.24,3.74,6.91,5.16,8.42,2.78,2.95,5.71,4.6,7.58,5.47,7.38,2.46,19.1,5.35,33.59,4.69,18.49-.84,32.43-7.04,39.88-11.05Z"/>
    <path class="cls-1" d="M236.88,86.55c-9.15,1.78-16.54,1.4-20.38,1.04-7.1-.67-12.31-2.26-15.68-3.54-3.81-1.44-5.51-2.57-6.14-3-.93-.64-5.44-3.85-8.14-9.81-4.08-9.01-1.02-17.69-.24-19.91,2.31-6.54,6.33-10.4,9.38-13.34,1.9-1.82,7.48-6.86,16.37-9.98,1.79-.63,7.96-2.67,16.26-2.59,3.31.03,12.32.45,21.38,5.12,3.36,1.73,5.89,3.62,6.76,4.28,1.98,1.51,4.42,3.41,6.81,6.5.87,1.13,3.13,4.09,4.53,8.29.82,2.46,3.45,11.59-1.57,20.45-.07.12-.16.27-.26.45-.67,1.11-3.17,5.05-9.09,8.71-7.95,4.91-18.35,7-20,7.32ZM255.1,75.78c1.74-1.46,2.61-2.2,3.43-3.18.94-1.12,4.53-5.69,3.88-11.56-.21-1.91-.8-3.35-1.21-4.31-1.26-3.01-3.03-4.89-3.94-5.85-4.06-4.26-9.32-6.32-12.26-7.44-8.19-3.12-15.1-3.1-17.28-3.04-2.33.06-6.61.37-11.7,1.92-2.4.74-7.3,2.46-12.55,6.14-1.94,1.36-3.92,2.77-6.01,5.23-1.54,1.81-3.67,4.38-4.66,8.34-.4,1.62-1.15,4.69-.05,8.3.93,3.06,2.7,5,3.73,6.09,2.01,2.14,4.13,3.33,5.48,3.96,5.34,1.78,13.81,3.87,24.29,3.39,13.37-.61,23.45-5.09,28.84-7.99Z"/>
  </g>
  <rect class="cls-1" x="145.72" y="191.37" width="53.78" height="36.61" rx="11.52" ry="11.52"/>
  <rect class="cls-1" x="165.91" y="233.25" width="10.85" height="263.7" rx="4.08" ry="4.08"/>
  <rect class="cls-1" x="108.09" y="223.41" width="10.85" height="263.7" rx="4.08" ry="4.08" transform="translate(131.37 -17.27) rotate(20.46)"/>
  <rect class="cls-1" x="223.66" y="223.41" width="10.85" height="263.7" rx="4.08" ry="4.08" transform="translate(567.92 607.99) rotate(159.54)"/>
</svg>