<?xml version="1.0" encoding="UTF-8"?>
<svg id="Livello_8" data-name="Livello 8" xmlns="http://www.w3.org/2000/svg" viewBox="0 0 322 372">
  <defs>
    <style>
      .cls-1 {
        fill: #1d1d1b;
      }

      .cls-2 {
        fill: none;
        stroke: #1d1d1b;
        stroke-linecap: round;
        stroke-miterlimit: 10;
        stroke-width: 3px;
      }
    </style>
  </defs>
  <path class="cls-1" d="M292.58,221.15c4.9-39.82,1.11-71.39-1.58-87.77-4.97-30.27-13.37-52.16-19.85-66.25-7.31-15.9-12.66-22.89-14.69-25.44-3.02-3.79-18.13-22.22-44.5-32.04-39.88-14.85-76.22.87-85.5,4.89-27.37,11.84-42.77,30.25-54.48,44.24-7.27,8.68-27.22,34.13-37.98,73.24-2.16,7.86-9.09,34.97-6.29,70.57,1.12,14.21,5.59,52.73,28.31,90.22,8.43,13.92,17.26,24.2,20.39,27.74,7.08,8.03,15.96,17.97,29.93,27.3,5.1,3.41,18.5,12.21,36.92,16.99,10.78,2.8,50.75,11.36,87.32-12.83.5-.33,1.13-.75,1.86-1.27,4.55-3.21,20.75-15.1,34.69-41.6,18.72-35.6,24.57-80.81,25.45-87.99ZM251.75,302.53c-5.77,7.89-8.65,11.84-12.62,15.68-4.51,4.36-23.07,21.11-48.45,20.09-8.28-.33-14.64-2.45-18.87-3.9-13.28-4.53-21.9-11.53-26.29-15.17-19.51-16.15-29.91-38.12-35.58-50.39-15.83-34.23-17.77-63.9-18.17-73.25-.42-10.04-.39-28.48,4.78-50.8,2.44-10.54,8.39-32.06,22.63-55.68,5.26-8.73,10.73-17.66,20.66-27.35,7.31-7.14,17.71-17.06,34.43-22.47,6.85-2.22,19.78-6.31,35.6-2.7,13.42,3.06,22.24,10.12,27.23,14.21,9.77,8,15.5,16.74,18.6,22.34,9.21,22.37,20.69,58.14,21.76,103.24,1.36,57.56-14.89,102.15-25.72,126.15Z"/>
  <path class="cls-1" d="M250.04,126.19c.87-7.07.2-12.68-.28-15.59-.88-5.37-2.37-9.26-3.52-11.76-1.3-2.82-2.25-4.06-2.61-4.52-.54-.67-3.22-3.95-7.9-5.69-7.08-2.64-13.54.16-15.18.87-4.86,2.1-7.6,5.37-9.67,7.86-1.29,1.54-4.83,6.06-6.74,13.01-.38,1.4-1.61,6.21-1.12,12.53.2,2.52.99,9.36,5.03,16.02,1.5,2.47,3.07,4.3,3.62,4.93,1.26,1.43,2.83,3.19,5.32,4.85.91.61,3.28,2.17,6.56,3.02,1.91.5,9.01,2.02,15.51-2.28.09-.06.2-.13.33-.23.81-.57,3.69-2.68,6.16-7.39,3.32-6.32,4.36-14.35,4.52-15.63Z"/>
  <path class="cls-1" d="M100.77,200.34s21.4-25.99,49.26-25.99,47.91,60.13,66.28,59.3c18.37-.84,20.04-22.55,33.41-25.05s16.54,27.71,16.54,27.71c0,0-11.81,99.92-74.47,96.43-74.15-4.14-91.02-132.39-91.02-132.39Z"/>
  <line class="cls-2" x1="225.2" y1="72.09" x2="222.02" y2="52.35"/>
  <line class="cls-2" x1="200.55" y1="81.83" x2="190.56" y2="64.52"/>
  <line class="cls-2" x1="186.99" y1="101.51" x2="167.85" y2="95.75"/>
  <line class="cls-2" x1="184.58" y1="130.97" x2="164.79" y2="133.76"/>
  <line class="cls-2" x1="194.54" y1="154.99" x2="181.2" y2="169.88"/>
  <line class="cls-2" x1="218.07" y1="171.35" x2="213.68" y2="190.85"/>
  <line class="cls-2" x1="247.04" y1="167.82" x2="253.89" y2="186.59"/>
</svg>