<?xml version="1.0" encoding="UTF-8"?>
<svg id="Livello_10" data-name="Livello 10" xmlns="http://www.w3.org/2000/svg" viewBox="0 0 322 294">
  <defs>
    <style>
      .cls-1 {
        fill: #1d1d1b;
      }

      .cls-2 {
        fill: none;
        stroke: #1d1d1b;
        stroke-miterlimit: 10;
        stroke-width: 6px;
      }
    </style>
  </defs>
  <path class="cls-1" d="M45.23,98.33c3.72-7.07,7.92-11.8,10.22-14.17,4.25-4.38,8.11-7.01,10.77-8.58,3-1.77,4.67-2.3,5.29-2.49.92-.28,5.49-1.57,10.91-.19,8.21,2.1,12.36,8.8,13.42,10.51,3.13,5.04,3.56,9.8,3.88,13.42.2,2.24.58,8.67-2.11,16.28-.54,1.53-2.48,6.75-6.98,12.25-1.8,2.2-6.9,7.99-14.87,11.54-2.96,1.32-5.57,2-6.48,2.22-2.07.51-4.65,1.13-7.99,1.07-1.22-.02-4.41-.1-7.97-1.41-2.08-.77-9.59-3.9-12.82-12.01-.04-.11-.1-.25-.16-.42-.38-1.04-1.68-4.82-.95-10.74.98-7.94,5.16-16,5.83-17.28ZM42.67,116.27c.05,1.95.07,2.92.28,4,.24,1.22,1.37,6.07,5.64,8.78,1.39.89,2.67,1.26,3.53,1.5,2.69.77,4.89.6,6.02.5,5.02-.43,9.22-2.84,11.54-4.2,6.47-3.8,10.16-8.43,11.29-9.91,1.21-1.59,3.3-4.61,4.99-8.85.8-2,2.27-6.19,2.62-11.67.13-2.02.25-4.11-.27-6.82-.39-2-.96-4.8-3.08-7.58-.87-1.14-2.52-3.28-5.51-4.48-2.54-1.02-4.79-.87-6.06-.77-2.5.2-4.43.98-5.58,1.54-4.05,2.61-9.98,7.16-15.28,14.41-6.76,9.25-9.16,18.39-10.12,23.54Z"/>
  <path class="cls-1" d="M52.9,208.21c-3.55-7.15-4.93-13.33-5.51-16.58-1.07-6.01-.94-10.68-.66-13.75.32-3.47.86-5.13,1.08-5.75.32-.91,1.93-5.37,6.24-8.96,6.5-5.43,14.37-4.88,16.37-4.74,5.92.41,10.03,2.85,13.15,4.7,1.94,1.15,7.37,4.61,11.97,11.24.93,1.33,4.02,5.96,5.85,12.83.73,2.74,2.44,10.27.65,18.81-.66,3.17-1.64,5.68-1.99,6.56-.8,1.98-1.81,4.43-3.81,7.11-.73.98-2.66,3.51-5.81,5.63-1.84,1.24-8.78,5.49-17.24,3.37-.12-.03-.26-.07-.43-.12-1.07-.3-4.89-1.46-9.26-5.52-5.87-5.44-9.96-13.55-10.6-14.84ZM65.95,220.79c1.6,1.1,2.41,1.65,3.41,2.11,1.13.52,5.73,2.44,10.42.57,1.53-.61,2.59-1.43,3.28-1.98,2.19-1.73,3.35-3.61,3.93-4.59,2.59-4.32,3.09-9.13,3.35-11.81.71-7.47-.89-13.17-1.43-14.95-.58-1.91-1.81-5.37-4.26-9.22-1.16-1.82-3.7-5.46-7.93-8.96-1.57-1.29-3.18-2.6-5.69-3.77-1.84-.86-4.45-2.03-7.95-1.94-1.43.04-4.13.12-6.86,1.85-2.32,1.46-3.51,3.37-4.17,4.47-1.3,2.15-1.8,4.17-2.01,5.42-.25,4.81-.04,12.28,2.74,20.82,3.55,10.89,9.55,18.19,13.17,21.98Z"/>
  <path class="cls-1" d="M120.87,28.49c7.15-3.56,13.32-4.95,16.57-5.53,6.01-1.08,10.67-.95,13.75-.67,3.47.32,5.14.86,5.75,1.07.91.31,5.37,1.93,8.97,6.22,5.43,6.5,4.9,14.36,4.76,16.37-.41,5.92-2.84,10.03-4.68,13.16-1.15,1.94-4.6,7.37-11.22,11.99-1.33.93-5.96,4.03-12.82,5.87-2.74.73-10.27,2.45-18.81.68-3.17-.66-5.69-1.63-6.56-1.98-1.98-.8-4.43-1.8-7.11-3.8-.98-.73-3.52-2.66-5.64-5.8-1.24-1.84-5.5-8.77-3.39-17.24.03-.12.07-.26.11-.43.3-1.07,1.45-4.9,5.5-9.27,5.44-5.87,13.53-9.98,14.82-10.62ZM108.3,41.56c-1.1,1.61-1.65,2.41-2.1,3.41-.52,1.14-2.43,5.73-.55,10.42.61,1.53,1.43,2.58,1.98,3.28,1.73,2.19,3.62,3.34,4.59,3.93,4.33,2.59,9.14,3.08,11.82,3.33,7.47.7,13.17-.91,14.95-1.45,1.91-.59,5.37-1.82,9.21-4.27,1.81-1.16,5.46-3.7,8.94-7.94,1.29-1.57,2.6-3.19,3.76-5.69.85-1.85,2.03-4.46,1.93-7.95-.04-1.43-.13-4.13-1.86-6.86-1.47-2.32-3.38-3.5-4.47-4.17-2.15-1.3-4.17-1.8-5.43-2.01-4.81-.24-12.28-.02-20.82,2.77-10.89,3.56-18.18,9.58-21.96,13.2Z"/>
  <path class="cls-1" d="M229.44,34.88c7.08,3.69,11.83,7.87,14.22,10.16,4.4,4.23,7.05,8.08,8.63,10.73,1.78,2.99,2.33,4.66,2.52,5.28.28.92,1.6,5.48.23,10.91-2.06,8.21-8.74,12.4-10.45,13.47-5.03,3.15-9.79,3.6-13.4,3.94-2.24.21-8.67.62-16.29-2.03-1.53-.53-6.76-2.45-12.28-6.93-2.2-1.79-8.02-6.86-11.6-14.82-1.33-2.95-2.02-5.56-2.25-6.47-.52-2.07-1.15-4.64-1.1-7.99.02-1.22.08-4.41,1.38-7.97.76-2.08,3.86-9.6,11.95-12.87.11-.05.25-.1.42-.16,1.04-.38,4.82-1.7,10.73-1,7.95.95,16.02,5.09,17.3,5.75ZM211.49,32.39c-1.94.06-2.92.08-3.99.3-1.22.25-6.06,1.4-8.76,5.68-.88,1.4-1.25,2.68-1.49,3.53-.75,2.69-.58,4.89-.48,6.02.45,5.02,2.88,9.2,4.25,11.52,3.83,6.46,8.47,10.12,9.96,11.24,1.6,1.2,4.63,3.28,8.87,4.95,2,.79,6.2,2.24,11.68,2.57,2.02.12,4.11.23,6.82-.3,2-.39,4.8-.98,7.57-3.11,1.14-.87,3.27-2.53,4.46-5.53,1.01-2.55.85-4.79.74-6.07-.21-2.5-1-4.43-1.57-5.57-2.63-4.03-7.2-9.95-14.48-15.21-9.28-6.72-18.43-9.08-23.59-10.01Z"/>
  <path class="cls-1" d="M281.27,124.12c1.8,7.78,1.72,14.11,1.53,17.41-.35,6.09-1.55,10.6-2.54,13.53-1.11,3.3-2.03,4.8-2.38,5.34-.52.81-3.12,4.78-8.14,7.27-7.58,3.78-15.1,1.42-17.03.82-5.66-1.77-9.1-5.09-11.71-7.61-1.62-1.57-6.1-6.18-9.05-13.7-.59-1.51-2.53-6.73-2.72-13.83-.08-2.84,0-10.55,3.71-18.45,1.38-2.93,2.91-5.15,3.45-5.92,1.23-1.74,2.78-3.89,5.35-6.03.94-.78,3.41-2.8,6.95-4.14,2.08-.78,9.81-3.31,17.55.71.11.06.24.13.39.21.97.54,4.42,2.55,7.74,7.51,4.45,6.65,6.56,15.48,6.88,16.88ZM271.49,108.86c-1.31-1.44-1.96-2.16-2.83-2.84-.98-.77-5.01-3.7-10.01-2.96-1.63.24-2.85.79-3.65,1.17-2.53,1.18-4.09,2.74-4.89,3.55-3.52,3.61-5.12,8.17-5.99,10.72-2.41,7.11-2.18,13.02-2.06,14.88.13,2,.52,5.64,2.01,9.95.7,2.03,2.33,6.17,5.65,10.55,1.22,1.62,2.49,3.27,4.66,4.98,1.6,1.26,3.86,3.01,7.29,3.73,1.4.29,4.05.83,7.1-.21,2.59-.89,4.19-2.47,5.09-3.38,1.77-1.79,2.72-3.64,3.21-4.81,1.35-4.62,2.88-11.94,2.14-20.89-.94-11.42-5.09-19.91-7.73-24.43Z"/>
  <path class="cls-2" d="M209.18,209.5s-55.26-4.78-29.76,40.39c25.51,45.17-28.16,39.85-28.16,39.85,0,0-95.12-1.06-128.6-107.34-14.4-45.7-.98-83.45,18.99-111.63C76.21,22.01,135.48-3.75,194.42,6.17c15.69,2.64,32.03,7.79,47.71,16.82,62.7,36.13,63.23,104.19,63.23,104.19,0,0,2.13,91.36-96.18,82.32Z"/>
</svg>